<?xml version="1.0" standalone="no"?>
<!DOCTYPE svg PUBLIC "-//W3C//DTD SVG 20010904//EN"
 "http://www.w3.org/TR/2001/REC-SVG-20010904/DTD/svg10.dtd">
<svg version="1.0" xmlns="http://www.w3.org/2000/svg"
 width="16.000000pt" height="16.000000pt" viewBox="0 0 16.000000 16.000000"
 preserveAspectRatio="xMidYMid meet">
<metadata>
Created by potrace 1.11, written by Peter Selinger 2001-2013
</metadata>
<g transform="translate(0.000000,16.000000) scale(0.008889,-0.008889)"
fill="#000000" stroke="none">
<path d="M400 1163 c0 -315 8 -374 65 -491 44 -88 131 -200 211 -268 56 -49
209 -154 223 -154 14 0 168 106 226 155 78 67 166 178 210 267 57 117 65 176
65 491 l0 277 -500 0 -500 0 0 -277z m635 167 c13 0 37 -12 54 -26 49 -41 39
-104 -16 -104 -25 0 -43 31 -43 76 0 35 -44 55 -68 30 -15 -15 -17 -51 -20
-355 l-3 -339 -26 -26 c-14 -15 -37 -29 -50 -32 -43 -11 -131 1 -154 22 -50
45 -43 104 12 104 16 0 31 -6 33 -12 2 -7 8 -31 12 -53 8 -37 11 -40 44 -40
l35 0 5 340 c5 358 7 372 53 397 29 15 79 27 95 22 8 -2 24 -4 37 -4z m-275
-385 l0 -185 -45 0 -45 0 0 178 c0 98 3 182 7 185 3 4 24 7 45 7 l38 0 0 -185z
m405 150 c0 -23 -5 -31 -22 -33 -23 -3 -23 -5 -23 -153 l0 -149 -45 0 -45 0 0
149 c0 140 -1 149 -20 154 -20 5 -28 45 -13 61 4 4 43 5 88 4 l80 -3 0 -30z"/>
</g>
</svg>
