<?xml version="1.0" standalone="no"?>
<!DOCTYPE svg PUBLIC "-//W3C//DTD SVG 20010904//EN"
 "http://www.w3.org/TR/2001/REC-SVG-20010904/DTD/svg10.dtd">
<svg version="1.0" xmlns="http://www.w3.org/2000/svg"
 width="16.000000pt" height="16.000000pt" viewBox="0 0 16.000000 16.000000"
 preserveAspectRatio="xMidYMid meet">
<metadata>
Created by potrace 1.11, written by Peter Selinger 2001-2013
</metadata>
<g transform="translate(0.000000,16.000000) scale(0.003125,-0.003125)"
fill="#000000" stroke="none">
<path d="M430 4000 c0 -1215 2 -1265 56 -1544 159 -815 756 -1613 1656 -2214
139 -93 273 -174 359 -217 l50 -26 102 57 c416 232 866 586 1168 920 473 522
722 1014 825 1634 16 95 18 217 21 1308 l4 1202 -2121 0 -2120 0 0 -1120z
m2738 640 c106 -30 168 -64 232 -129 68 -68 100 -141 100 -232 0 -74 -17 -115
-63 -156 -70 -62 -162 -66 -237 -12 -58 42 -79 95 -80 194 0 90 -19 181 -44
221 -28 42 -98 67 -169 61 -74 -7 -104 -27 -137 -93 l-25 -49 -5 -1400 c-5
-1271 -7 -1404 -22 -1441 -33 -82 -59 -124 -108 -172 -104 -103 -249 -153
-440 -154 -326 0 -546 137 -575 358 -9 67 8 125 48 171 38 44 82 63 141 63 56
0 93 -14 129 -48 49 -47 60 -78 68 -210 11 -197 53 -252 190 -252 117 0 162
49 179 195 6 57 10 571 10 1406 0 1295 0 1318 20 1383 50 160 191 271 401 316
76 16 304 4 387 -20z m-1188 -1665 l0 -795 -195 0 -195 0 0 795 0 795 195 0
195 0 0 -795z m1700 660 l0 -135 -90 0 -90 0 0 -660 0 -660 -190 0 -190 0 0
660 0 659 -87 3 -88 3 -3 133 -3 132 371 0 370 0 0 -135z"/>
</g>
</svg>
