<?xml version="1.0" standalone="no"?>
<!DOCTYPE svg PUBLIC "-//W3C//DTD SVG 20010904//EN"
 "http://www.w3.org/TR/2001/REC-SVG-20010904/DTD/svg10.dtd">
<svg version="1.0" xmlns="http://www.w3.org/2000/svg"
 width="16.000000pt" height="16.000000pt" viewBox="0 0 16.000000 16.000000"
 preserveAspectRatio="xMidYMid meet">
<metadata>
Created by potrace 1.11, written by Peter Selinger 2001-2013
</metadata>
<g transform="translate(0.000000,16.000000) scale(0.002219,-0.002219)"
fill="#000000" stroke="none">
<path d="M3559 7060 c-20 -13 -19 -277 1 -302 13 -16 17 -17 35 -4 18 12 20
24 19 142 -1 71 -2 136 -3 145 -1 19 -33 30 -52 19z"/>
<path d="M3253 7048 c-4 -7 -6 -42 -4 -78 2 -36 4 -93 5 -127 1 -35 4 -63 9
-63 4 0 7 -8 7 -19 0 -10 9 -21 20 -24 31 -8 49 17 45 61 -2 20 -7 69 -10 107
-9 104 -16 139 -29 147 -17 11 -34 9 -43 -4z"/>
<path d="M3850 7040 c-6 -11 -7 -20 -3 -20 4 0 1 -5 -7 -10 -11 -7 -11 -10 -2
-10 7 0 11 -4 7 -9 -3 -6 -8 -36 -10 -68 -2 -32 -7 -80 -9 -107 -5 -46 5 -86
22 -86 18 0 43 27 47 50 3 14 8 78 11 144 5 94 3 120 -7 127 -22 14 -38 10
-49 -11z"/>
<path d="M2959 7008 c-13 -9 -14 -20 -7 -62 4 -28 10 -69 14 -91 21 -145 36
-175 76 -154 17 9 19 17 13 57 -26 169 -38 227 -53 245 -17 19 -21 20 -43 5z"/>
<path d="M4157 7006 c-8 -6 -18 -31 -22 -56 -4 -25 -9 -58 -11 -75 -3 -16 -8
-37 -11 -45 -3 -8 -8 -26 -10 -40 -10 -64 -8 -75 12 -87 27 -15 55 9 55 48 0
15 5 31 10 34 6 4 9 9 6 13 -2 4 2 43 10 87 7 44 13 90 13 101 1 25 -31 38
-52 20z"/>
<path d="M2664 6938 c-11 -15 -10 -28 1 -83 4 -22 8 -42 7 -45 0 -3 3 -9 8
-15 4 -5 13 -35 20 -65 16 -72 34 -100 59 -93 11 3 22 11 25 18 4 12 -50 232
-69 278 -8 20 -38 23 -51 5z"/>
<path d="M4430 6903 c-7 -27 -21 -75 -32 -108 -23 -71 -34 -155 -22 -156 5 0
17 -2 26 -4 24 -4 32 10 52 85 20 77 22 85 35 130 6 19 11 50 11 67 0 30 -3
33 -29 33 -26 0 -30 -5 -41 -47z"/>
<path d="M4739 6852 c-16 -18 -75 -162 -71 -174 1 -5 -3 -8 -10 -8 -6 0 -9 -3
-5 -6 3 -4 0 -21 -7 -38 -16 -38 -4 -81 20 -72 9 3 19 6 23 6 5 0 23 42 41 93
18 50 36 97 40 102 16 21 22 85 10 100 -15 19 -21 18 -41 -3z"/>
<path d="M2373 6848 c-12 -16 -11 -25 16 -103 12 -33 23 -67 26 -75 3 -14 27
-68 44 -100 5 -8 18 -16 30 -16 25 -1 37 32 25 68 -4 13 -9 25 -9 28 -1 3 -7
18 -13 33 -7 16 -12 30 -12 32 0 2 -5 16 -12 32 -6 15 -13 37 -15 48 -10 52
-56 83 -80 53z"/>
<path d="M2103 6743 c-23 -9 -14 -44 37 -154 28 -59 50 -112 50 -117 0 -11 24
-22 45 -22 8 0 19 8 24 18 8 14 -3 44 -45 133 -30 63 -58 121 -63 129 -9 16
-29 22 -48 13z"/>
<path d="M5006 6731 c-9 -10 -16 -25 -16 -34 0 -9 -4 -17 -8 -17 -5 0 -21 -31
-38 -70 -16 -38 -32 -70 -36 -70 -10 0 -22 -69 -14 -77 11 -11 66 -12 66 -1 0
9 41 100 92 205 12 23 18 48 15 56 -8 22 -44 27 -61 8z"/>
<path d="M1838 6609 c-24 -13 -23 -60 1 -90 16 -22 42 -67 94 -165 14 -27 23
-34 47 -34 42 0 51 38 18 83 -13 17 -30 46 -38 62 -8 17 -17 32 -20 35 -3 3
-11 17 -19 32 -8 15 -26 41 -40 58 -21 24 -29 28 -43 19z"/>
<path d="M5273 6591 c-10 -11 -31 -44 -47 -73 -16 -29 -31 -55 -35 -58 -16
-13 -53 -98 -50 -115 6 -30 38 -30 66 -1 13 14 21 26 18 26 -4 0 3 13 14 29
12 16 21 34 21 40 0 6 5 11 10 11 6 0 10 6 10 14 0 8 4 16 9 18 13 4 49 100
44 116 -7 18 -40 15 -60 -7z"/>
<path d="M3369 6596 c-2 -2 -40 -6 -84 -10 -44 -3 -89 -8 -100 -10 -11 -2 -42
-7 -70 -10 -301 -40 -721 -186 -999 -348 -127 -74 -354 -230 -412 -283 -6 -5
-40 -35 -75 -65 -253 -220 -499 -530 -667 -840 -179 -331 -304 -748 -339
-1140 -10 -110 -10 -450 0 -560 92 -1009 713 -1924 1616 -2382 244 -124 533
-222 783 -267 205 -37 330 -48 543 -48 161 0 218 3 375 22 692 82 1360 439
1836 980 393 447 650 1019 719 1600 4 28 9 61 12 75 9 46 11 474 2 565 -10
104 -17 169 -24 205 -3 14 -7 39 -10 55 -13 81 -45 222 -62 280 -109 367 -242
649 -436 925 -315 449 -780 825 -1272 1030 -11 4 -37 15 -58 25 -58 25 -273
94 -362 116 -146 35 -227 50 -345 64 -30 4 -66 9 -80 12 -30 6 -485 14 -491 9z
m396 -100 c112 -8 158 -13 265 -31 132 -23 140 -25 225 -46 597 -152 1137
-498 1520 -975 355 -442 551 -906 630 -1489 15 -118 23 -465 11 -560 -3 -22
-7 -69 -11 -105 -15 -165 -68 -408 -126 -582 -146 -439 -380 -820 -698 -1138
-136 -135 -152 -150 -291 -256 -435 -334 -941 -530 -1495 -579 -88 -8 -393 -8
-460 0 -27 3 -72 8 -100 11 -405 46 -811 188 -1166 409 -100 62 -288 197 -330
237 -8 7 -52 47 -98 88 -237 211 -473 525 -630 838 -105 209 -209 509 -245
707 -22 116 -36 210 -41 270 -4 39 -9 81 -11 95 -6 34 -6 396 0 440 3 19 8 71
12 115 4 44 8 82 9 85 0 3 4 26 8 51 14 83 18 103 47 224 67 281 176 546 330
806 51 85 171 262 190 279 3 3 17 21 32 41 56 76 223 252 315 335 315 280 662
480 1048 603 117 38 304 83 390 95 22 3 56 8 75 11 86 13 112 16 230 22 69 3
126 6 127 7 4 3 141 -2 238 -8z"/>
<path d="M1383 4629 c-98 -48 -98 -191 1 -239 50 -24 75 -25 119 -6 59 25 81
59 82 126 0 49 -4 63 -25 85 -54 58 -108 68 -177 34z"/>
<path d="M5571 4633 c-123 -64 -94 -238 44 -258 111 -17 194 101 142 202 -33
62 -122 89 -186 56z"/>
<path d="M2841 4534 c-41 -7 -80 -15 -87 -18 -18 -7 -13 -1082 6 -1151 17 -63
62 -134 105 -164 93 -63 260 -70 370 -14 17 9 32 17 34 19 2 2 -7 44 -20 94
-18 70 -27 90 -39 86 -8 -3 -35 -12 -60 -22 -53 -20 -111 -13 -140 16 -35 35
-40 88 -38 382 l3 283 123 1 c67 1 125 2 130 3 4 1 7 45 7 99 l0 97 -130 0
-130 1 -3 152 -3 152 -27 -1 c-15 -1 -60 -7 -101 -15z"/>
<path d="M2085 4252 c-135 -47 -207 -158 -201 -310 5 -128 63 -212 206 -300
42 -26 88 -57 103 -69 52 -41 66 -126 31 -181 -37 -56 -141 -62 -250 -12 -35
16 -65 26 -68 22 -2 -4 -14 -47 -26 -95 -27 -101 -30 -94 59 -128 160 -60 350
-38 441 51 99 97 124 257 60 387 -35 70 -74 106 -192 177 -115 70 -143 108
-140 186 4 88 111 120 223 66 l50 -24 8 22 c5 11 18 54 29 94 l21 72 -27 14
c-91 47 -237 59 -327 28z"/>
<path d="M4855 4254 c-108 -35 -174 -107 -200 -219 -24 -102 4 -215 71 -294
16 -19 63 -56 104 -83 132 -84 152 -100 166 -134 27 -64 7 -138 -43 -165 -43
-23 -130 -15 -211 19 l-72 30 -9 -37 c-45 -173 -49 -154 37 -190 64 -27 123
-36 219 -35 190 3 312 120 319 305 7 152 -51 239 -231 349 -123 76 -156 132
-125 214 23 62 119 76 216 32 48 -22 54 -23 58 -8 3 9 14 50 26 91 18 61 19
76 8 86 -51 47 -240 69 -333 39z"/>
<path d="M1339 4241 c-6 -25 -3 -1064 3 -1067 11 -7 208 -7 215 0 8 7 10 1065
3 1067 -19 5 -220 4 -221 0z"/>
<path d="M5520 3709 l0 -538 43 -3 c23 -2 75 -2 115 0 l72 4 -2 536 -3 537
-112 1 -113 0 0 -537z"/>
<path d="M3570 3690 l0 -80 400 0 400 0 0 80 0 80 -400 0 -400 0 0 -80z"/>
<path d="M1554 2804 c-73 -38 -73 -113 0 -173 72 -61 84 -91 47 -125 -17 -15
-67 -16 -92 -1 -3 3 -9 -4 -12 -15 -4 -16 2 -22 31 -30 68 -18 127 11 137 70
8 49 -11 84 -66 124 -43 30 -59 58 -51 89 6 25 46 39 76 27 19 -7 26 -5 30 7
8 20 5 23 -38 33 -24 5 -43 3 -62 -6z"/>
<path d="M4753 2806 c-86 -29 -85 -123 3 -185 46 -34 59 -59 50 -96 -7 -26
-34 -36 -80 -28 -24 4 -35 1 -39 -11 -9 -23 63 -41 107 -26 42 13 69 59 61
102 -8 40 -18 54 -71 96 -23 17 -44 40 -46 50 -12 45 31 78 79 61 15 -6 23 -3
27 8 8 20 6 22 -30 32 -17 5 -42 4 -61 -3z"/>
<path d="M5613 2808 c-34 -9 -63 -49 -63 -88 0 -24 27 -80 38 -80 20 0 82 -70
82 -92 0 -40 -32 -61 -78 -53 -31 5 -41 3 -45 -9 -5 -11 4 -18 32 -26 79 -21
151 31 137 101 -8 42 -16 53 -62 88 -26 19 -49 44 -54 55 -17 47 19 81 72 66
20 -6 28 -4 33 7 3 9 4 18 2 20 -13 12 -67 19 -94 11z"/>
<path d="M1722 2654 l3 -156 29 -23 c38 -31 99 -27 134 9 26 25 26 28 27 173
0 146 0 148 -22 151 -23 3 -23 3 -23 -135 0 -152 -6 -173 -53 -178 -42 -5 -51
23 -52 165 -1 128 -5 150 -31 150 -13 0 -15 -22 -12 -156z"/>
<path d="M1999 2763 c-1 -27 -3 -61 -5 -78 -1 -16 -5 -74 -7 -127 -4 -97 -4
-98 19 -98 26 0 25 -10 27 237 0 49 19 4 73 -175 2 -7 13 -12 25 -10 17 2 27
21 51 98 16 52 34 99 39 105 5 5 9 -21 10 -65 3 -187 2 -185 26 -188 22 -3 22
-3 17 125 -3 70 -7 139 -9 153 -1 14 -3 35 -4 48 -1 15 -7 22 -20 22 -25 0
-27 -4 -71 -128 -42 -118 -32 -121 -85 28 -27 74 -46 100 -72 100 -9 0 -13
-16 -14 -47z"/>
<path d="M2366 2801 c-3 -4 -8 -57 -11 -117 -3 -60 -8 -135 -10 -166 -3 -56
-2 -58 21 -58 26 0 24 -21 27 232 1 46 15 22 47 -82 27 -87 34 -100 53 -100
19 0 25 11 44 78 12 43 28 94 36 113 14 33 14 33 16 -51 3 -99 7 -172 9 -182
1 -5 11 -8 22 -8 18 0 19 6 15 123 -7 191 -12 223 -36 224 -23 2 -40 -32 -80
-154 -23 -74 -32 -82 -43 -38 -4 14 -20 63 -37 110 -24 65 -35 85 -49 85 -11
0 -21 -4 -24 -9z"/>
<path d="M2715 2802 c-3 -3 -5 -81 -5 -174 l0 -168 84 0 c79 0 85 1 83 20 -1
18 -8 20 -59 20 -32 0 -58 5 -59 10 0 6 -2 33 -2 60 -2 55 -6 52 81 53 15 0
22 6 22 18 0 16 -8 19 -50 19 -52 0 -52 0 -52 55 0 52 1 55 30 54 65 -4 84 1
80 19 -3 14 -15 17 -75 18 -40 1 -75 -1 -78 -4z"/>
<path d="M2957 2803 c-15 -4 -17 -20 -16 -174 l0 -169 23 0 c22 0 23 4 22 61
-1 50 2 63 17 71 11 5 23 6 27 1 13 -12 60 -109 60 -122 0 -6 11 -11 25 -11
14 0 25 3 25 7 0 3 -14 37 -31 74 l-31 67 22 30 c24 32 29 87 11 121 -22 40
-91 60 -154 44z m98 -47 c21 -15 25 -77 6 -99 -15 -19 -62 -31 -70 -18 -5 8
-6 86 -2 124 2 12 46 8 66 -7z"/>
<path d="M3301 2634 l0 -174 23 0 24 0 -1 173 c-2 170 -2 172 -24 173 -22 1
-22 1 -22 -172z"/>
<path d="M3436 2802 c-3 -3 -6 -81 -6 -174 0 -158 1 -168 19 -168 26 0 27 9
26 133 -1 59 1 110 5 112 4 2 33 -52 65 -120 43 -92 64 -125 77 -125 17 0 18
13 18 173 0 159 -2 174 -17 174 -10 0 -20 -3 -23 -8 -3 -4 -5 -57 -4 -118 0
-61 -1 -110 -2 -108 -1 1 -28 53 -60 116 -54 104 -79 133 -98 113z"/>
<path d="M3687 2789 c-4 -16 1 -19 28 -19 18 0 37 -6 42 -12 5 -7 8 -77 8
-155 0 -142 0 -143 22 -143 23 0 23 0 23 156 l0 156 38 -4 c31 -2 37 0 37 17
0 19 -7 20 -97 21 -86 1 -97 -1 -101 -17z"/>
<path d="M3930 2634 l0 -174 86 0 c74 0 85 2 80 16 -3 9 -6 18 -6 20 0 2 -25
4 -55 4 -37 0 -55 4 -56 13 -2 30 0 99 3 102 2 2 25 5 51 6 38 2 47 6 47 21 0
15 -8 18 -50 18 -53 0 -52 -2 -52 65 0 44 2 47 30 45 65 -5 84 0 80 18 -3 14
-15 17 -81 18 l-77 1 0 -173z"/>
<path d="M4173 2802 c-7 -5 -11 -59 -11 -174 1 -167 1 -168 23 -168 20 0 22 5
22 58 1 82 1 81 25 79 16 -1 29 -18 52 -69 25 -53 36 -67 54 -68 12 0 22 3 22
6 0 3 -13 35 -30 71 -16 35 -30 67 -30 69 0 3 9 14 19 25 43 47 28 133 -29
161 -36 18 -96 23 -117 10z m104 -51 c39 -37 6 -121 -48 -121 -10 0 -19 6 -20
13 -1 18 -1 100 0 115 2 19 45 14 68 -7z"/>
<path d="M4420 2633 c0 -163 1 -173 19 -173 26 0 28 10 26 133 -1 60 2 110 6
112 3 3 33 -52 65 -120 43 -92 63 -125 76 -125 17 0 18 13 18 170 0 145 -2
172 -15 177 -9 3 -19 3 -22 -1 -3 -3 -6 -57 -7 -120 0 -64 -1 -114 -3 -112 -2
1 -25 47 -52 102 -58 114 -69 131 -93 131 -16 0 -18 -15 -18 -174z"/>
<path d="M4917 2803 c-4 -3 -7 -82 -7 -175 l0 -168 24 0 c23 0 24 3 24 68 0
37 1 73 1 80 1 8 19 12 56 12 l55 0 0 -80 c0 -76 1 -80 23 -80 22 0 22 0 22
173 0 171 0 172 -22 173 -22 1 -23 -2 -23 -72 l0 -74 -55 0 c-37 0 -55 4 -56
13 -1 6 -2 35 -3 62 -2 28 -3 56 -4 63 -2 13 -24 16 -35 5z"/>
<path d="M5205 2800 c-2 -4 -4 -82 -4 -174 1 -164 2 -167 23 -164 20 3 21 7
21 172 0 153 -2 169 -17 172 -10 1 -20 -1 -23 -6z"/>
<path d="M5343 2804 c-10 -4 -13 -49 -13 -175 l0 -169 24 0 c21 0 24 4 24 38
0 94 -1 92 37 92 48 0 95 43 99 90 6 79 -36 126 -114 128 -25 0 -51 -1 -57 -4z
m101 -47 c10 -7 19 -29 21 -49 4 -43 -23 -78 -60 -78 -25 0 -27 4 -27 65 0 70
2 75 25 75 13 0 31 -6 41 -13z"/>
<path d="M5524 6432 c-16 -25 -25 -36 -49 -65 -33 -38 -94 -136 -99 -158 -5
-23 -2 -28 20 -33 15 -4 27 -6 28 -4 1 2 20 26 42 53 42 53 90 125 92 138 1 4
8 15 17 23 27 28 16 65 -22 70 -7 1 -20 -10 -29 -24z"/>
<path d="M1571 6433 c-7 -13 -4 -27 12 -53 11 -19 24 -37 27 -40 4 -3 19 -25
35 -49 30 -48 38 -60 73 -96 25 -27 42 -31 59 -14 11 11 6 59 -7 59 -4 0 -27
29 -50 64 -23 36 -49 74 -58 84 -9 11 -25 30 -34 41 -22 26 -44 27 -57 4z"/>
<path d="M1335 6260 c-14 -23 10 -68 84 -154 104 -121 101 -119 130 -97 26 20
25 25 -24 85 -27 34 -45 54 -116 139 -25 28 -64 43 -74 27z"/>
<path d="M5748 6239 c-10 -10 -18 -21 -18 -24 0 -5 -40 -53 -73 -88 -45 -46
-67 -89 -56 -108 20 -37 33 -30 122 72 26 30 61 69 77 87 33 35 37 51 18 70
-17 17 -50 13 -70 -9z"/>
<path d="M1116 6055 c-18 -14 -18 -15 -1 -42 10 -15 58 -67 107 -115 61 -62
95 -88 112 -88 20 0 24 5 22 28 -2 19 -27 52 -87 113 -106 108 -127 123 -153
104z"/>
<path d="M5901 5966 c-100 -100 -121 -136 -85 -150 21 -8 45 6 83 49 17 20 31
34 31 31 0 -3 24 21 53 52 28 31 55 59 60 60 12 6 8 40 -5 49 -27 16 -38 8
-137 -91z"/>
<path d="M905 5829 c-9 -28 6 -48 84 -114 39 -33 71 -63 71 -67 0 -5 7 -8 15
-8 8 0 15 -4 15 -8 0 -17 50 -33 70 -22 23 12 20 36 -8 65 -12 13 -22 30 -22
40 0 9 -6 15 -12 12 -15 -5 -58 23 -111 73 -46 43 -94 56 -102 29z"/>
<path d="M6135 5789 c-33 -28 -81 -69 -107 -92 -48 -40 -61 -73 -33 -83 25
-10 58 4 100 41 74 65 89 77 113 93 27 17 56 68 47 82 -15 24 -62 8 -120 -41z"/>
<path d="M736 5591 c-9 -9 -16 -21 -16 -24 0 -28 202 -177 240 -177 19 0 33
14 36 37 1 7 -12 23 -29 35 -18 12 -36 28 -40 35 -4 7 -13 13 -18 13 -6 0 -38
20 -72 43 -84 60 -82 59 -101 38z"/>
<path d="M6359 5585 c-19 -14 -42 -28 -51 -31 -10 -4 -18 -10 -18 -15 0 -5 -5
-9 -10 -9 -10 0 -16 -4 -53 -35 -7 -6 -27 -21 -45 -34 -26 -18 -31 -27 -26
-44 13 -41 33 -42 89 -3 17 12 32 24 33 29 2 4 8 7 14 7 5 0 36 20 67 45 32
24 61 41 65 38 3 -4 7 2 8 13 0 10 2 26 2 34 2 16 -12 30 -30 30 -6 0 -26 -11
-45 -25z"/>
<path d="M567 5347 c-36 -28 13 -76 150 -146 88 -46 126 -50 131 -15 2 17 -9
29 -48 53 -27 17 -52 31 -55 30 -3 0 -17 9 -32 21 -14 11 -32 20 -39 20 -7 0
-17 6 -21 13 -13 22 -69 37 -86 24z"/>
<path d="M6530 5342 c-19 -9 -37 -19 -40 -22 -3 -4 -26 -17 -52 -29 -27 -13
-48 -27 -48 -32 0 -5 -9 -9 -20 -9 -11 0 -20 -4 -20 -8 0 -5 -11 -14 -24 -20
-17 -7 -23 -18 -22 -39 1 -24 5 -28 33 -29 19 -1 47 10 74 28 23 15 65 39 94
54 64 31 95 58 95 84 0 31 -31 41 -70 22z"/>
<path d="M433 5083 c-7 -2 -13 -16 -13 -29 0 -21 15 -31 117 -80 138 -65 170
-74 179 -49 14 35 3 44 -136 108 -107 50 -130 57 -147 50z"/>
<path d="M6567 5026 c-104 -50 -127 -67 -127 -92 0 -31 48 -21 155 30 115 55
141 76 131 101 -9 25 -45 16 -159 -39z"/>
<path d="M305 4790 c-16 -18 -17 -23 -5 -30 8 -6 11 -10 5 -10 -17 0 42 -28
77 -35 18 -4 44 -12 58 -18 14 -5 30 -11 35 -13 6 -1 29 -9 52 -17 23 -9 49
-14 59 -13 22 3 37 41 21 54 -11 8 -75 36 -87 37 -3 1 -22 9 -44 18 -21 9 -44
17 -50 17 -7 0 -16 4 -21 9 -6 5 -26 11 -46 15 -28 5 -39 2 -54 -14z"/>
<path d="M6769 4794 c-19 -7 -73 -27 -121 -44 -98 -36 -109 -45 -97 -77 10
-26 47 -24 106 5 21 11 41 20 45 21 38 7 128 44 139 57 28 35 -17 59 -72 38z"/>
<path d="M240 4520 c-37 -9 -39 -45 -3 -63 24 -12 133 -43 140 -39 2 1 18 -5
38 -14 19 -8 35 -11 35 -7 0 4 5 2 12 -5 20 -20 58 -14 67 11 14 36 3 46 -73
68 -39 11 -98 28 -131 38 -33 9 -71 14 -85 11z"/>
<path d="M6835 4508 c-176 -47 -205 -58 -205 -77 0 -26 10 -52 19 -47 3 2 28
7 55 10 27 4 53 9 56 11 4 2 22 7 41 10 110 19 152 44 138 82 -11 30 -26 31
-104 11z"/>
<path d="M154 4215 c-27 -42 3 -60 141 -80 22 -4 54 -9 70 -11 32 -6 59 -7 88
-5 14 1 18 8 15 34 -2 17 -7 32 -13 33 -5 0 -23 3 -40 7 -56 12 -142 26 -195
31 -14 1 -31 5 -37 9 -7 5 -19 -3 -29 -18z"/>
<path d="M6911 4219 c-24 -5 -48 -6 -52 -3 -5 3 -9 0 -9 -6 0 -6 -4 -9 -9 -5
-8 5 -40 0 -127 -20 -24 -5 -36 -34 -23 -57 8 -15 29 -16 86 -4 15 3 46 8 68
12 22 3 47 7 55 9 8 2 31 7 50 10 44 8 54 18 47 47 -7 26 -21 29 -86 17z"/>
<path d="M120 3921 c-17 -14 -18 -19 -7 -40 10 -20 21 -24 82 -28 39 -3 106
-6 150 -7 l80 -1 3 33 c2 21 -1 33 -10 34 -19 2 -54 5 -143 12 -44 4 -93 8
-108 10 -16 2 -37 -4 -47 -13z"/>
<path d="M6998 3935 c-1 -1 -46 -6 -98 -9 -181 -13 -180 -13 -177 -54 l3 -27
84 1 c119 1 210 11 226 25 21 18 17 45 -10 57 -13 6 -26 9 -28 7z"/>
<path d="M150 3632 c-49 -5 -62 -17 -48 -48 11 -24 12 -24 159 -24 134 0 149
2 158 19 7 13 6 23 -3 36 -10 15 -30 18 -122 19 -60 0 -125 0 -144 -2z"/>
<path d="M6809 3632 c-58 -2 -68 -6 -72 -23 -12 -44 -4 -46 159 -46 l154 0 6
24 c4 13 2 29 -3 34 -11 11 -133 16 -244 11z"/>
<path d="M347 3354 c-2 -2 -50 -7 -108 -10 -115 -6 -136 -16 -125 -59 l7 -27
94 6 c161 10 199 17 210 34 15 27 14 40 -3 48 -19 8 -69 14 -75 8z"/>
<path d="M6724 3343 c-11 -11 -12 -19 -2 -36 16 -32 23 -34 107 -37 42 -1 100
-3 130 -5 62 -4 91 7 91 35 0 30 -19 37 -135 44 -27 2 -50 5 -50 6 0 1 -28 3
-63 4 -45 2 -68 -1 -78 -11z"/>
<path d="M390 3078 c-13 -5 -29 -7 -36 -4 -7 3 -14 1 -16 -4 -2 -5 -22 -11
-45 -12 -24 -2 -43 -6 -43 -9 0 -3 -15 -5 -33 -5 -21 1 -41 -6 -55 -19 -19
-18 -20 -23 -9 -39 13 -18 62 -24 107 -13 14 4 39 8 55 11 139 21 157 28 153
63 -4 31 -39 45 -78 31z"/>
<path d="M6701 3073 c-12 -8 -21 -18 -21 -22 0 -18 28 -42 55 -46 17 -3 50
-10 75 -15 25 -5 63 -12 84 -15 21 -3 49 -8 61 -11 13 -3 29 1 39 11 34 34 12
60 -61 71 -21 3 -47 7 -58 9 -11 3 -35 6 -52 9 -18 3 -48 9 -67 15 -26 7 -40
5 -55 -6z"/>
<path d="M440 2802 c-25 -7 -52 -15 -60 -17 -166 -47 -184 -57 -162 -92 10
-16 30 -18 87 -8 28 5 53 8 58 7 4 -1 7 3 7 8 0 6 3 9 8 9 4 -1 9 0 12 1 3 1
14 3 25 5 51 10 106 29 116 41 16 19 2 51 -24 56 -12 2 -42 -2 -67 -10z"/>
<path d="M6632 2804 c-30 -32 -9 -57 63 -76 28 -7 52 -15 55 -18 3 -3 14 -7
25 -8 11 -2 45 -12 75 -22 38 -13 60 -15 72 -9 19 10 23 35 9 57 -7 11 -95 42
-128 44 -7 1 -13 6 -13 11 0 6 -2 8 -6 5 -3 -3 -35 2 -72 12 -56 14 -70 15
-80 4z"/>
<path d="M445 2501 c-139 -53 -145 -57 -145 -79 0 -35 59 -48 95 -22 6 4 28
13 50 20 22 7 46 18 54 24 8 6 17 10 20 9 3 -1 23 3 45 9 61 19 75 72 20 82
-10 2 -73 -18 -139 -43z"/>
<path d="M6549 2528 c-4 -43 3 -50 76 -73 49 -16 84 -29 117 -46 9 -5 35 -11
57 -15 34 -5 40 -4 46 15 9 30 -6 45 -65 61 -27 7 -50 16 -50 20 0 4 -23 13
-51 20 -27 8 -52 18 -55 22 -8 13 -74 9 -75 -4z"/>
<path d="M658 2283 c-10 -2 -18 -9 -18 -14 0 -5 -3 -8 -7 -7 -9 1 -82 -30
-161 -70 -45 -23 -52 -30 -50 -52 3 -22 8 -25 41 -26 20 -1 37 2 37 6 0 4 34
23 75 41 41 18 75 36 75 40 0 4 14 10 30 14 21 5 32 14 36 32 9 35 -12 48 -58
36z"/>
<path d="M6444 2283 c-6 -2 -9 -15 -6 -29 4 -21 25 -35 129 -85 92 -44 130
-58 149 -53 17 4 23 11 20 21 -3 8 -6 18 -6 22 0 3 -35 24 -77 45 -43 21 -90
45 -105 52 -14 8 -33 14 -42 14 -9 0 -16 4 -16 8 0 9 -29 12 -46 5z"/>
<path d="M730 2003 c-41 -20 -77 -40 -80 -43 -3 -3 -21 -16 -42 -28 -39 -24
-49 -39 -39 -62 9 -23 41 -22 87 3 98 52 121 66 133 81 8 9 19 16 25 16 6 0
17 10 25 22 12 19 11 23 -5 35 -23 17 -17 18 -104 -24z"/>
<path d="M6309 2024 c-18 -22 8 -45 130 -114 107 -61 125 -67 150 -51 28 18
-2 49 -111 111 -118 68 -149 78 -169 54z"/>
<path d="M955 1801 c-38 -12 -80 -36 -105 -58 -14 -13 -29 -23 -35 -23 -5 -1
-30 -20 -54 -44 -34 -34 -42 -48 -37 -64 5 -13 14 -20 24 -19 19 4 107 55 127
75 8 6 18 12 23 12 6 0 12 3 14 8 2 4 22 22 46 40 23 19 42 37 42 41 0 19 -26
38 -45 32z"/>
<path d="M6175 1800 c-24 -8 -26 -29 -6 -50 24 -25 225 -160 238 -160 7 0 17
9 23 20 9 18 6 25 -23 53 -19 18 -63 50 -98 72 -34 22 -74 47 -88 56 -17 11
-33 14 -46 9z"/>
<path d="M1115 1577 c-11 -6 -62 -46 -113 -90 -71 -60 -92 -85 -90 -101 4 -31
38 -31 73 0 17 14 46 38 65 53 19 14 42 33 50 42 9 8 25 22 37 30 11 8 23 24
27 36 9 28 -20 46 -49 30z"/>
<path d="M5995 1574 c-13 -14 -13 -18 1 -39 9 -14 20 -22 25 -19 5 3 9 1 9 -4
0 -5 35 -38 78 -73 42 -35 79 -66 82 -70 5 -8 27 -12 48 -10 25 2 10 43 -30
82 -24 23 -48 44 -54 47 -6 4 -33 25 -59 47 -59 50 -80 59 -100 39z"/>
<path d="M1311 1372 c-19 -7 -176 -164 -191 -192 -11 -20 -10 -25 5 -36 21
-15 15 -19 135 99 50 49 90 95 90 102 0 17 -22 33 -39 27z"/>
<path d="M5817 1364 c-4 -4 -7 -14 -7 -22 0 -21 189 -202 211 -202 18 0 20 3
23 30 1 5 -39 50 -87 100 -82 84 -123 111 -140 94z"/>
<path d="M1470 1150 c-28 -27 -47 -50 -44 -50 4 0 -9 -15 -28 -33 -20 -18 -39
-43 -42 -55 -4 -12 -12 -22 -17 -22 -6 0 -9 -12 -7 -27 2 -20 9 -29 25 -31 23
-3 34 6 93 77 19 24 42 51 50 60 66 79 74 97 53 119 -19 20 -30 15 -83 -38z"/>
<path d="M5606 1185 c-12 -13 -13 -21 -4 -40 6 -14 15 -25 20 -25 4 0 8 -4 8
-10 0 -5 8 -18 18 -28 9 -10 33 -37 52 -61 58 -71 81 -92 98 -89 10 2 18 14
20 28 3 25 -13 47 -116 168 -70 82 -70 82 -96 57z"/>
<path d="M1740 1022 c-21 -7 -100 -111 -100 -131 0 -5 -6 -11 -13 -14 -7 -2
-25 -27 -40 -55 -23 -43 -25 -51 -12 -62 24 -20 58 -4 87 42 32 52 93 139 107
154 10 12 14 30 12 50 -1 15 -22 23 -41 16z"/>
<path d="M5392 1014 c-18 -13 -19 -18 -9 -42 14 -32 84 -138 110 -166 9 -11
17 -25 17 -32 0 -13 23 -26 53 -29 29 -3 32 39 6 77 -13 18 -27 34 -31 36 -4
2 -8 9 -8 16 0 7 -8 21 -18 32 -10 10 -32 40 -50 66 -40 58 -44 61 -70 42z"/>
<path d="M1967 869 c-19 -11 -79 -101 -97 -146 -7 -18 -17 -33 -23 -33 -6 0
-7 -3 -4 -7 4 -3 2 -12 -4 -19 -6 -7 -13 -26 -15 -42 -4 -24 -1 -31 17 -35 28
-7 54 21 103 114 22 41 42 76 45 79 46 38 27 116 -22 89z"/>
<path d="M5151 867 c-17 -17 -13 -38 20 -92 16 -27 41 -72 55 -99 30 -57 70
-100 85 -91 14 9 28 49 20 55 -3 3 -15 22 -26 42 -94 174 -126 213 -154 185z"/>
<path d="M2214 742 c-18 -12 -88 -152 -76 -152 4 0 2 -4 -4 -8 -18 -12 -44
-73 -44 -102 0 -16 7 -30 16 -34 18 -7 54 10 54 25 0 15 32 83 43 90 5 3 8 9
8 12 0 4 9 28 20 54 35 82 37 89 28 106 -11 18 -27 21 -45 9z"/>
<path d="M4900 735 c-10 -12 -5 -32 31 -113 24 -53 46 -99 49 -102 3 -3 13
-22 24 -42 15 -30 22 -35 36 -28 10 5 21 6 25 2 4 -4 5 9 4 28 -2 19 -6 37 -9
40 -3 3 -30 56 -60 117 -56 114 -73 131 -100 98z"/>
<path d="M2455 620 c-3 -11 -11 -20 -16 -20 -6 0 -7 -5 -4 -10 4 -6 0 -22 -9
-35 -8 -13 -17 -35 -20 -50 -3 -15 -9 -32 -14 -38 -5 -7 -10 -19 -10 -27 -1
-8 -4 -33 -8 -56 -6 -43 8 -60 39 -48 28 10 122 271 105 291 -17 20 -56 16
-63 -7z"/>
<path d="M4642 623 c-10 -20 -10 -22 26 -118 15 -38 27 -72 28 -75 0 -3 6 -18
12 -33 7 -16 12 -32 12 -37 0 -14 40 -32 56 -26 8 3 14 17 14 30 0 26 -76 242
-93 264 -14 18 -45 15 -55 -5z"/>
<path d="M2721 543 c-8 -16 -48 -151 -56 -191 -2 -9 -8 -30 -15 -47 -9 -25 -9
-31 6 -42 21 -15 55 -7 69 16 5 9 10 33 12 53 2 21 15 74 29 118 20 64 23 84
13 96 -16 19 -46 18 -58 -3z"/>
<path d="M4373 543 c-3 -7 -2 -30 2 -51 4 -20 7 -38 6 -39 0 -2 6 -18 15 -38
8 -19 11 -35 8 -35 -4 0 -1 -6 5 -14 6 -8 11 -18 9 -22 -4 -17 15 -79 29 -96
12 -13 20 -15 38 -6 27 12 26 33 -10 153 -13 44 -27 94 -31 110 -4 17 -11 35
-16 42 -12 15 -49 12 -55 -4z"/>
<path d="M3003 489 c-22 -8 -28 -21 -37 -79 -3 -19 -8 -46 -10 -60 -2 -14 -8
-47 -12 -75 -4 -27 -8 -56 -10 -63 -4 -19 26 -43 50 -40 37 5 47 42 62 229 7
93 1 105 -43 88z"/>
<path d="M4113 489 c-14 -5 -21 -16 -20 -28 1 -12 4 -21 7 -21 3 0 6 -15 6
-33 1 -17 5 -43 8 -57 6 -24 9 -43 20 -119 7 -46 24 -62 54 -50 21 8 23 14 21
66 -2 32 -6 63 -10 68 -4 6 -9 29 -13 53 -9 68 -25 120 -39 125 -6 2 -22 1
-34 -4z"/>
<path d="M3275 453 c-8 -8 -15 -26 -16 -41 0 -15 -2 -43 -4 -62 -2 -19 -6 -60
-8 -90 -3 -30 -6 -59 -8 -65 -5 -17 11 -53 26 -59 21 -8 43 3 49 22 12 40 27
251 19 280 -6 26 -39 34 -58 15z"/>
<path d="M3556 437 c-16 -24 -18 -282 -3 -304 12 -19 54 -16 59 5 4 14 3 246
-1 293 -2 27 -40 31 -55 6z"/>
<path d="M3833 448 c-9 -14 -11 -158 -3 -158 3 0 5 -19 5 -43 -1 -65 20 -116
47 -117 4 0 14 7 22 16 12 11 15 28 12 62 -3 26 -7 76 -10 112 -7 72 -14 119
-22 132 -8 12 -42 10 -51 -4z"/>
</g>
</svg>
